# xmcd
#
# Track frame offsets:
#	150
#	19657
#	31644
#	43465
#	52814
#	70265
#	89545
#	107327
#	124419
#	147144
#	159216
#	176951
#	190310
#	208782
#
# Disc length: 2947 seconds
#
# Revision: 0
# Processed by: cddbd v1.4PL0 Copyright (c) Steve Scherf et al.
# Submitted via: dBpowerAMP V4.0
#
DISCID=c00b810e
DTITLE=Pamela Rose - On The Jazzy Side Of Blues
DYEAR=1900
DGENRE=Blues
TTITLE0=Three-Handed Woman
TTITLE1=Ain't-Cha Glad?
TTITLE2=Oh Grandpa
TTITLE3=No Moon At All
TTITLE4=I Was Just Hoping You'd Have Me Again
TTITLE5=Is You Is (Or Is You Ain't My Baby)
TTITLE6=Slipper
TTITLE7=Take Me Back
TTITLE8=Please Don't Do It Again
TTITLE9=A Chicken Ain't Nothing But A Bird
TTITLE10=The Tender Trap
TTITLE11=A Little Better Soon
TTITLE12=Say It
TTITLE13=On The Jazzy Side Of Blue
EXTD=
EXTT0=
EXTT1=
EXTT2=
EXTT3=
EXTT4=
EXTT5=
EXTT6=
EXTT7=
EXTT8=
EXTT9=
EXTT10=
EXTT11=
EXTT12=
EXTT13=
PLAYORDER=
